<?xml version="1.0" encoding="utf-8"?>
<!-- Generator: Adobe Illustrator 16.2.1, SVG Export Plug-In . SVG Version: 6.00 Build 0)  -->
<!DOCTYPE svg PUBLIC "-//W3C//DTD SVG 1.1//EN" "http://www.w3.org/Graphics/SVG/1.1/DTD/svg11.dtd">
<svg version="1.1" id="Layer_1" xmlns="http://www.w3.org/2000/svg" xmlns:xlink="http://www.w3.org/1999/xlink" x="0px" y="0px"
	 width="160px" height="74px" viewBox="54 16.5 160 74" enable-background="new 54 16.5 160 74" xml:space="preserve">
<g>
	<polygon fill="#FFFFFF" points="55.708,65.918 68.746,46.61 57.33,46.61 57.33,42.947 75.58,42.947 75.58,43.229 62.544,62.466 
		75.229,62.466 75.229,66.129 55.708,66.129 	"/>
	<rect x="81.075" y="42.947" fill="#FFFFFF" width="4.37" height="23.182"/>
	<path fill="#FFFFFF" d="M91.293,54.574c0-6.977,5.215-12.189,11.979-12.189c4.086,0,6.977,1.338,9.161,3.732l-2.891,2.609
		c-1.478-1.622-3.591-2.609-6.27-2.609c-4.51,0-7.469,3.667-7.469,8.457c0,4.722,2.958,8.384,7.469,8.384
		c3.17,0,5.354-1.266,6.835-2.888l2.889,2.538c-2.183,2.604-5.354,4.087-9.724,4.087C96.508,66.695,91.293,61.479,91.293,54.574"/>
	<path fill="#FFFFFF" d="M132.867,51.896c0-4.298-2.114-5.847-5.426-5.847c-2.96,0-4.933,1.125-6.555,3.312l-2.748-2.396
		c2.326-3.102,5.427-4.58,9.443-4.58c5.919,0,9.582,3.099,9.582,9.51v14.233h-4.297v-2.605c-1.551,1.974-4.087,3.17-7.258,3.17
		c-4.862,0-8.809-2.396-8.809-7.471c0-4.72,4.157-7.116,9.09-7.116h6.977V51.896z M126.172,55.561c-2.818,0-5.073,1.059-5.073,3.664
		c0,2.609,1.973,3.949,5.214,3.949c3.454,0,6.554-1.835,6.554-5.075v-2.538H126.172z"/>
	<path fill="#FFFFFF" d="M142.026,61.622l3.241-2.326c1.41,2.326,3.735,3.734,6.836,3.734c2.958,0,4.651-1.129,4.651-3.102
		c0-2.111-1.623-2.817-5.639-3.945c-4.791-1.34-7.399-3.102-7.399-7.188c0-3.805,3.102-6.41,7.751-6.41
		c3.946,0,6.483,1.549,8.177,3.732l-3.032,2.539c-1.057-1.481-2.749-2.607-5.145-2.607c-2.465,0-3.733,1.196-3.733,2.607
		c0,2.043,1.55,2.537,5.145,3.523c5.214,1.41,8.032,3.245,8.032,7.47c0,4.367-3.312,7.047-8.808,7.047
		C147.594,66.695,144.141,64.79,142.026,61.622"/>
	<path fill="#FFFFFF" d="M164.434,61.622l3.241-2.326c1.411,2.326,3.735,3.734,6.835,3.734c2.96,0,4.649-1.129,4.649-3.102
		c0-2.111-1.618-2.817-5.636-3.945c-4.792-1.34-7.399-3.102-7.399-7.188c0-3.805,3.1-6.41,7.751-6.41
		c3.947,0,6.484,1.549,8.175,3.732l-3.03,2.539c-1.057-1.481-2.748-2.607-5.145-2.607c-2.465,0-3.733,1.196-3.733,2.607
		c0,2.043,1.549,2.537,5.145,3.523c5.214,1.41,8.031,3.245,8.031,7.47c0,4.367-3.312,7.047-8.808,7.047
		C170,66.695,166.547,64.79,164.434,61.622"/>
	<path fill="#FFFFFF" d="M187.545,54.574c0-6.977,5.426-12.189,12.332-12.189c6.835,0,12.263,5.214,12.263,12.189
		c0,6.906-5.428,12.121-12.263,12.121C192.971,66.695,187.545,61.479,187.545,54.574 M207.698,54.574
		c0-4.861-3.168-8.525-7.821-8.525c-4.65,0-7.821,3.665-7.821,8.525c0,4.791,3.171,8.456,7.821,8.456
		C204.528,63.03,207.698,59.365,207.698,54.574"/>
	<path fill="#FFCF01" d="M80.371,31.28c0-1.69,1.41-2.96,2.96-2.96c1.549,0,2.959,1.27,2.959,2.96c0,1.691-1.411,2.959-2.959,2.959
		C81.781,34.239,80.371,32.971,80.371,31.28"/>
	<path fill="#B5121B" d="M75.553,31.279c0-4.295,3.481-7.778,7.779-7.779c4.295,0.001,7.778,3.483,7.778,7.779
		c0,4.297-3.483,7.778-7.778,7.779C79.034,39.057,75.553,35.576,75.553,31.279 M77.371,31.279c0.006,3.292,2.668,5.955,5.961,5.962
		c3.291-0.007,5.953-2.669,5.959-5.962c-0.006-3.292-2.669-5.953-5.959-5.96C80.039,25.326,77.376,27.988,77.371,31.279"/>
	<polygon fill="#FFFFFF" points="57.72,78.146 57.72,80.649 56.675,80.649 56.675,74.706 57.72,74.706 57.72,77.177 60.556,77.177 
		60.556,74.706 61.601,74.706 61.601,80.649 60.556,80.649 60.556,78.146 	"/>
	<path fill="#FFFFFF" d="M71.665,80.649h-1.104l-0.604-1.435h-2.81l-0.611,1.435h-1.07l2.615-5.984h0.969L71.665,80.649z
		 M68.548,75.911l-1.019,2.379h2.046L68.548,75.911z"/>
	<polygon fill="#FFFFFF" points="79.682,74.706 80.709,74.706 80.709,80.649 79.835,80.649 76.558,76.422 76.558,80.649 
		75.53,80.649 75.53,74.706 76.498,74.706 79.682,78.815 	"/>
	<path fill="none" d="M106.25,75.658h-1.52v1.994h1.527c0.748,0,1.223-0.39,1.223-1.001C107.48,75.998,107.022,75.658,106.25,75.658
		z"/>
	<polygon fill="none" points="182.324,75.911 181.305,78.29 183.352,78.29 	"/>
	<path fill="none" d="M173.328,75.658h-1.519v1.994h1.528c0.745,0,1.223-0.39,1.223-1.001
		C174.561,75.998,174.101,75.658,173.328,75.658z"/>
	<path fill="none" d="M87.301,75.658h-1.172v4.041h1.172c1.248,0,2.064-0.841,2.064-2.012
		C89.365,76.516,88.548,75.658,87.301,75.658z"/>
	<path fill="none" d="M149.747,75.658h-1.172v4.041h1.172c1.249,0,2.062-0.841,2.062-2.012
		C151.81,76.516,150.996,75.658,149.747,75.658z"/>
	<polygon fill="none" points="115.245,75.911 114.225,78.29 116.272,78.29 	"/>
	<path fill="#FFFFFF" d="M90.46,77.669c0-1.681-1.291-2.964-3.159-2.964h-2.216v5.944h2.216C89.169,80.649,90.46,79.35,90.46,77.669
		z M87.301,79.699h-1.172v-4.041h1.172c1.248,0,2.064,0.857,2.064,2.029C89.365,78.858,88.548,79.699,87.301,79.699z"/>
	<path fill="#FFFFFF" d="M97.366,75.564c0.679,0,1.189,0.297,1.665,0.739l0.67-0.772c-0.569-0.543-1.232-0.927-2.327-0.927
		c-1.8,0-3.065,1.385-3.065,3.084c0,1.713,1.291,3.065,3.022,3.065c1.112,0,1.792-0.409,2.412-1.052l-0.671-0.68
		c-0.51,0.474-0.976,0.772-1.706,0.772c-1.138,0-1.962-0.951-1.962-2.124C95.404,76.499,96.228,75.564,97.366,75.564z"/>
	<path fill="#FFFFFF" d="M108.542,76.591c0-1.162-0.84-1.885-2.208-1.885h-2.649v5.944h1.044v-2.071h1.308l1.461,2.071h1.23
		l-1.604-2.248C107.956,78.172,108.542,77.576,108.542,76.591z M106.257,77.652h-1.527v-1.994h1.52c0.772,0,1.231,0.341,1.231,0.993
		C107.48,77.263,107.005,77.652,106.257,77.652z"/>
	<path fill="#FFFFFF" d="M116.654,79.215l0.603,1.435h1.104l-2.615-5.984h-0.969l-2.614,5.984h1.07l0.611-1.435H116.654z
		 M115.245,75.911l1.027,2.379h-2.046L115.245,75.911z"/>
	<polygon fill="#FFFFFF" points="126.65,75.658 126.65,74.706 122.227,74.706 122.227,80.649 123.271,80.649 123.271,78.229 
		126.269,78.229 126.269,77.28 123.271,77.28 123.271,75.658 	"/>
	<polygon fill="#FFFFFF" points="133.157,80.649 133.157,75.675 135.043,75.675 135.043,74.706 130.22,74.706 130.22,75.675 
		132.105,75.675 132.105,80.649 	"/>
	<polygon fill="#FFFFFF" points="143.402,75.64 143.402,74.706 138.995,74.706 138.995,80.649 143.443,80.649 143.443,79.716 
		140.038,79.716 140.038,78.119 143.02,78.119 143.02,77.187 140.038,77.187 140.038,75.64 	"/>
	<path fill="#FFFFFF" d="M152.904,77.669c0-1.681-1.291-2.964-3.157-2.964h-2.216v5.944h2.216
		C151.613,80.649,152.904,79.35,152.904,77.669z M149.747,79.699h-1.172v-4.041h1.172c1.249,0,2.062,0.857,2.062,2.029
		C151.81,78.858,150.996,79.699,149.747,79.699z"/>
	<polygon fill="#FFFFFF" points="164.929,80.649 164.929,75.675 166.813,75.675 166.813,74.706 161.988,74.706 161.988,75.675 
		163.874,75.675 163.874,80.649 	"/>
	<path fill="#FFFFFF" d="M175.621,76.591c0-1.162-0.84-1.885-2.208-1.885h-2.648v5.944h1.045v-2.071h1.307l1.46,2.071h1.231
		l-1.605-2.248C175.036,78.172,175.621,77.576,175.621,76.591z M173.338,77.652h-1.528v-1.994h1.519
		c0.772,0,1.232,0.341,1.232,0.993C174.561,77.263,174.084,77.652,173.338,77.652z"/>
	<path fill="#FFFFFF" d="M183.733,79.215l0.603,1.435h1.104l-2.617-5.984h-0.966l-2.615,5.984h1.072l0.61-1.435H183.733z
		 M182.324,75.911l1.027,2.379h-2.047L182.324,75.911z"/>
	<polygon fill="#FFFFFF" points="193.807,74.706 192.677,74.706 190.896,79.274 189.103,74.706 187.948,74.706 190.418,80.692 
		191.334,80.692 	"/>
	<polygon fill="#FFFFFF" points="202.08,75.64 202.08,74.706 197.672,74.706 197.672,80.649 202.122,80.649 202.122,79.716 
		198.717,79.716 198.717,78.119 201.696,78.119 201.696,77.187 198.717,77.187 198.717,75.64 	"/>
	<polygon fill="#FFFFFF" points="207.253,74.706 206.21,74.706 206.21,80.649 210.377,80.649 210.377,79.699 207.253,79.699 	"/>
</g>
</svg>
